<svg xmlns="http://www.w3.org/2000/svg" fill-rule="evenodd" stroke-linejoin="round" stroke-miterlimit="2" viewBox="0 0 50 50"><path fill="#fff333" d="M7.322 42.678A25.004 25.004 0 0025 50c13.807 0 25-11.193 25-25H37.5s-.371 3.469-1.04 5c-1.929 4.415-6.334 7.5-11.46 7.5a12.501 12.501 0 01-8.839-3.661l-8.839 8.839z"/><g fill="#32de84"><path d="M7.322 42.678A25.004 25.004 0 0025 50c13.807 0 25-11.193 25-25v-5H25v5h18.75c0 10.355-8.395 18.75-18.75 18.75a18.746 18.746 0 01-13.258-5.492l-4.42 4.42z"/><path d="M42.678 7.322A25.004 25.004 0 0025 0C11.202 0 0 11.202 0 25c0 6.63 2.634 12.989 7.322 17.678l8.839-8.839A12.501 12.501 0 0112.5 25 12.51 12.51 0 0125 12.5a12.5 12.5 0 018.839 3.661l8.839-8.839z"/></g><path fill="#fff333" d="M42.678 7.322A25.004 25.004 0 0025 0C11.202 0 0 11.202 0 25c0 6.63 2.634 12.989 7.322 17.678l4.42-4.42A18.746 18.746 0 016.25 25C6.25 14.652 14.652 6.25 25 6.25c4.973 0 9.742 1.975 13.258 5.492l4.42-4.42zM25 25h12.5v5H25z"/></svg>