<svg xmlns="http://www.w3.org/2000/svg" viewBox="0 0 116 65" fill-rule="evenodd" stroke-linejoin="round" stroke-miterlimit="2">
  <path d="M0 0h116v65H0z" fill="#1a1a1a1e"/>
  <g transform="matrix(.535593 0 0 .535593 44.610175 19.110175)">
    <path d="M7.322 42.678C12.009 47.364 18.372 50 25 50c13.807 0 25-11.193 25-25H37.5s-.371 3.469-1.04 5c-1.929 4.415-6.334 7.5-11.46 7.5-3.314 0-6.496-1.318-8.839-3.661l-8.839 8.839z" fill="#fff333"/>
    <g fill="#32de84">
      <path d="M7.322 42.678C12.009 47.364 18.372 50 25 50c13.807 0 25-11.193 25-25v-5H25v5h18.75c0 10.355-8.395 18.75-18.75 18.75-4.971 0-9.743-1.977-13.258-5.492l-4.42 4.42z"/>
      <path d="M42.678 7.322C37.991 2.636 31.628 0 25 0 11.202 0 0 11.202 0 25c0 6.63 2.634 12.989 7.322 17.678l8.839-8.839C13.818 31.496 12.5 28.314 12.5 25c.005-6.855 5.645-12.495 12.5-12.5 3.314 0 6.496 1.318 8.839 3.661l8.839-8.839z"/>
    </g>
    <path d="M42.678 7.322C37.991 2.636 31.628 0 25 0 11.202 0 0 11.202 0 25c0 6.63 2.634 12.989 7.322 17.678l4.42-4.42C8.227 34.743 6.25 29.971 6.25 25 6.25 14.652 14.652 6.25 25 6.25c4.973 0 9.742 1.975 13.258 5.492l4.42-4.42zM25 25h12.5v5H25v-5z" fill="#fff333"/>
  </g>
</svg>